<mxfile host="app.diagrams.net" modified="2023-08-08T11:22:42.246Z" agent="Mozilla/5.0 (Windows NT 10.0; Win64; x64) AppleWebKit/537.36 (KHTML, like Gecko) Chrome/115.0.0.0 Safari/537.36" etag="8OUkJDoteUrXj2Z0DDsv" version="21.6.6" type="github">
  <diagram name="Page-1" id="g6D7waffcttJb7KQSpzA">
    <mxGraphModel dx="1707" dy="1647" grid="1" gridSize="10" guides="1" tooltips="1" connect="1" arrows="1" fold="1" page="1" pageScale="1" pageWidth="827" pageHeight="1169" math="0" shadow="0">
      <root>
        <mxCell id="0" />
        <mxCell id="1" parent="0" />
        <mxCell id="dCAK_VR4QbaqJIh2a8T1-3" value="&lt;b&gt;&lt;font style=&quot;font-size: 17px;&quot;&gt;Critére&lt;/font&gt;&lt;/b&gt;" style="ellipse;whiteSpace=wrap;html=1;aspect=fixed;fillColor=#f8cecc;strokeColor=#b85450;" parent="1" vertex="1">
          <mxGeometry x="340" y="-1150" width="80" height="80" as="geometry" />
        </mxCell>
        <mxCell id="FxK41Yj2pU4yyGaG2tty-1" value="" style="rounded=1;whiteSpace=wrap;html=1;" parent="1" vertex="1">
          <mxGeometry x="280" y="-490" width="120" height="60" as="geometry" />
        </mxCell>
        <mxCell id="lq7A5JY4NSjg6rWxIa5I-1" value="choisir" style="rhombus;whiteSpace=wrap;html=1;fillColor=#fff2cc;strokeColor=#d6b656;" parent="1" vertex="1">
          <mxGeometry x="340" y="-1040" width="80" height="80" as="geometry" />
        </mxCell>
        <mxCell id="lq7A5JY4NSjg6rWxIa5I-2" value="Sous traitence" style="shape=parallelogram;perimeter=parallelogramPerimeter;whiteSpace=wrap;html=1;fixedSize=1;fillColor=#e1d5e7;strokeColor=#9673a6;" parent="1" vertex="1">
          <mxGeometry x="220" y="-930" width="120" height="60" as="geometry" />
        </mxCell>
        <mxCell id="lq7A5JY4NSjg6rWxIa5I-3" value="Fournisseur" style="shape=parallelogram;perimeter=parallelogramPerimeter;whiteSpace=wrap;html=1;fixedSize=1;fillColor=#e1d5e7;strokeColor=#9673a6;" parent="1" vertex="1">
          <mxGeometry x="400" y="-930" width="120" height="60" as="geometry" />
        </mxCell>
        <mxCell id="lq7A5JY4NSjg6rWxIa5I-4" value="" style="endArrow=classic;html=1;rounded=0;exitX=0.5;exitY=1;exitDx=0;exitDy=0;" parent="1" source="dCAK_VR4QbaqJIh2a8T1-3" target="lq7A5JY4NSjg6rWxIa5I-1" edge="1">
          <mxGeometry width="50" height="50" relative="1" as="geometry">
            <mxPoint x="390" y="-900" as="sourcePoint" />
            <mxPoint x="440" y="-950" as="targetPoint" />
          </mxGeometry>
        </mxCell>
        <mxCell id="lq7A5JY4NSjg6rWxIa5I-5" value="" style="endArrow=classic;html=1;rounded=0;exitX=0.5;exitY=1;exitDx=0;exitDy=0;entryX=1;entryY=0;entryDx=0;entryDy=0;" parent="1" source="lq7A5JY4NSjg6rWxIa5I-1" target="lq7A5JY4NSjg6rWxIa5I-2" edge="1">
          <mxGeometry width="50" height="50" relative="1" as="geometry">
            <mxPoint x="390" y="-900" as="sourcePoint" />
            <mxPoint x="440" y="-950" as="targetPoint" />
          </mxGeometry>
        </mxCell>
        <mxCell id="lq7A5JY4NSjg6rWxIa5I-6" value="" style="endArrow=classic;html=1;rounded=0;entryX=0.25;entryY=0;entryDx=0;entryDy=0;" parent="1" target="lq7A5JY4NSjg6rWxIa5I-3" edge="1">
          <mxGeometry width="50" height="50" relative="1" as="geometry">
            <mxPoint x="380" y="-960" as="sourcePoint" />
            <mxPoint x="440" y="-950" as="targetPoint" />
          </mxGeometry>
        </mxCell>
        <mxCell id="jomvGtJeBPQtQ8Pvg2io-1" value="Profiles" style="swimlane;whiteSpace=wrap;html=1;startSize=23;fillColor=#f5f5f5;fontColor=#333333;strokeColor=#666666;" vertex="1" parent="1">
          <mxGeometry x="170" y="-850" width="170" height="147" as="geometry" />
        </mxCell>
        <mxCell id="jomvGtJeBPQtQ8Pvg2io-2" value="Direction de Projet&lt;br&gt;" style="text;html=1;align=center;verticalAlign=middle;resizable=0;points=[];autosize=1;strokeColor=none;fillColor=none;" vertex="1" parent="jomvGtJeBPQtQ8Pvg2io-1">
          <mxGeometry y="27" width="120" height="30" as="geometry" />
        </mxCell>
        <mxCell id="jomvGtJeBPQtQ8Pvg2io-3" value="Direction Etudes et Marchés" style="text;html=1;align=center;verticalAlign=middle;resizable=0;points=[];autosize=1;strokeColor=none;fillColor=none;" vertex="1" parent="jomvGtJeBPQtQ8Pvg2io-1">
          <mxGeometry y="47" width="170" height="30" as="geometry" />
        </mxCell>
        <mxCell id="jomvGtJeBPQtQ8Pvg2io-4" value="Direction QHSE" style="text;html=1;align=center;verticalAlign=middle;resizable=0;points=[];autosize=1;strokeColor=none;fillColor=none;" vertex="1" parent="jomvGtJeBPQtQ8Pvg2io-1">
          <mxGeometry x="-2" y="68" width="110" height="30" as="geometry" />
        </mxCell>
        <mxCell id="jomvGtJeBPQtQ8Pvg2io-5" value="&lt;br&gt;Direction Sous-Traitance" style="text;html=1;align=center;verticalAlign=middle;resizable=0;points=[];autosize=1;strokeColor=none;fillColor=none;" vertex="1" parent="jomvGtJeBPQtQ8Pvg2io-1">
          <mxGeometry x="-4" y="76" width="160" height="40" as="geometry" />
        </mxCell>
        <mxCell id="jomvGtJeBPQtQ8Pvg2io-6" value="&lt;br&gt;Service Qualité" style="text;html=1;align=center;verticalAlign=middle;resizable=0;points=[];autosize=1;strokeColor=none;fillColor=none;" vertex="1" parent="jomvGtJeBPQtQ8Pvg2io-1">
          <mxGeometry x="3" y="98" width="100" height="40" as="geometry" />
        </mxCell>
        <mxCell id="jomvGtJeBPQtQ8Pvg2io-7" value="Profiles" style="swimlane;whiteSpace=wrap;html=1;startSize=23;fillColor=#f5f5f5;fontColor=#333333;strokeColor=#666666;" vertex="1" parent="1">
          <mxGeometry x="420" y="-850" width="170" height="147" as="geometry" />
        </mxCell>
        <mxCell id="jomvGtJeBPQtQ8Pvg2io-13" value="" style="sketch=0;outlineConnect=0;fillColor=#f8cecc;strokeColor=#CC0000;dashed=0;verticalLabelPosition=bottom;verticalAlign=top;align=center;html=1;fontSize=12;fontStyle=0;aspect=fixed;pointerEvents=1;shape=mxgraph.aws4.question;" vertex="1" parent="jomvGtJeBPQtQ8Pvg2io-7">
          <mxGeometry x="64.5" y="38" width="41" height="78" as="geometry" />
        </mxCell>
        <mxCell id="jomvGtJeBPQtQ8Pvg2io-15" value="choisir" style="rhombus;whiteSpace=wrap;html=1;fillColor=#fff2cc;strokeColor=#d6b656;" vertex="1" parent="1">
          <mxGeometry x="-115" y="-1042" width="80" height="80" as="geometry" />
        </mxCell>
        <mxCell id="jomvGtJeBPQtQ8Pvg2io-16" value="Sous traitence" style="shape=parallelogram;perimeter=parallelogramPerimeter;whiteSpace=wrap;html=1;fixedSize=1;fillColor=#e1d5e7;strokeColor=#9673a6;" vertex="1" parent="1">
          <mxGeometry x="-235" y="-932" width="120" height="60" as="geometry" />
        </mxCell>
        <mxCell id="jomvGtJeBPQtQ8Pvg2io-17" value="Fournisseur" style="shape=parallelogram;perimeter=parallelogramPerimeter;whiteSpace=wrap;html=1;fixedSize=1;fillColor=#e1d5e7;strokeColor=#9673a6;" vertex="1" parent="1">
          <mxGeometry x="-55" y="-932" width="120" height="60" as="geometry" />
        </mxCell>
        <mxCell id="jomvGtJeBPQtQ8Pvg2io-18" value="" style="endArrow=classic;html=1;rounded=0;exitX=0.5;exitY=1;exitDx=0;exitDy=0;" edge="1" parent="1" target="jomvGtJeBPQtQ8Pvg2io-15" source="jomvGtJeBPQtQ8Pvg2io-29">
          <mxGeometry width="50" height="50" relative="1" as="geometry">
            <mxPoint x="-75" y="-1072" as="sourcePoint" />
            <mxPoint x="-15" y="-952" as="targetPoint" />
          </mxGeometry>
        </mxCell>
        <mxCell id="jomvGtJeBPQtQ8Pvg2io-19" value="" style="endArrow=classic;html=1;rounded=0;exitX=0.5;exitY=1;exitDx=0;exitDy=0;entryX=1;entryY=0;entryDx=0;entryDy=0;" edge="1" parent="1" source="jomvGtJeBPQtQ8Pvg2io-15" target="jomvGtJeBPQtQ8Pvg2io-16">
          <mxGeometry width="50" height="50" relative="1" as="geometry">
            <mxPoint x="-65" y="-902" as="sourcePoint" />
            <mxPoint x="-15" y="-952" as="targetPoint" />
          </mxGeometry>
        </mxCell>
        <mxCell id="jomvGtJeBPQtQ8Pvg2io-20" value="" style="endArrow=classic;html=1;rounded=0;entryX=0.25;entryY=0;entryDx=0;entryDy=0;" edge="1" parent="1" target="jomvGtJeBPQtQ8Pvg2io-17">
          <mxGeometry width="50" height="50" relative="1" as="geometry">
            <mxPoint x="-75" y="-962" as="sourcePoint" />
            <mxPoint x="-15" y="-952" as="targetPoint" />
          </mxGeometry>
        </mxCell>
        <mxCell id="jomvGtJeBPQtQ8Pvg2io-21" value="Profiles" style="swimlane;whiteSpace=wrap;html=1;startSize=23;fillColor=#f5f5f5;fontColor=#333333;strokeColor=#666666;" vertex="1" parent="1">
          <mxGeometry x="-285" y="-852" width="170" height="147" as="geometry" />
        </mxCell>
        <mxCell id="jomvGtJeBPQtQ8Pvg2io-22" value="Direction de Projet&lt;br&gt;" style="text;html=1;align=center;verticalAlign=middle;resizable=0;points=[];autosize=1;strokeColor=none;fillColor=none;" vertex="1" parent="jomvGtJeBPQtQ8Pvg2io-21">
          <mxGeometry y="27" width="120" height="30" as="geometry" />
        </mxCell>
        <mxCell id="jomvGtJeBPQtQ8Pvg2io-23" value="Direction Etudes et Marchés" style="text;html=1;align=center;verticalAlign=middle;resizable=0;points=[];autosize=1;strokeColor=none;fillColor=none;" vertex="1" parent="jomvGtJeBPQtQ8Pvg2io-21">
          <mxGeometry y="47" width="170" height="30" as="geometry" />
        </mxCell>
        <mxCell id="jomvGtJeBPQtQ8Pvg2io-24" value="Direction QHSE" style="text;html=1;align=center;verticalAlign=middle;resizable=0;points=[];autosize=1;strokeColor=none;fillColor=none;" vertex="1" parent="jomvGtJeBPQtQ8Pvg2io-21">
          <mxGeometry x="-2" y="68" width="110" height="30" as="geometry" />
        </mxCell>
        <mxCell id="jomvGtJeBPQtQ8Pvg2io-25" value="&lt;br&gt;Direction Sous-Traitance" style="text;html=1;align=center;verticalAlign=middle;resizable=0;points=[];autosize=1;strokeColor=none;fillColor=none;" vertex="1" parent="jomvGtJeBPQtQ8Pvg2io-21">
          <mxGeometry x="-4" y="76" width="160" height="40" as="geometry" />
        </mxCell>
        <mxCell id="jomvGtJeBPQtQ8Pvg2io-26" value="&lt;br&gt;Service Qualité" style="text;html=1;align=center;verticalAlign=middle;resizable=0;points=[];autosize=1;strokeColor=none;fillColor=none;" vertex="1" parent="jomvGtJeBPQtQ8Pvg2io-21">
          <mxGeometry x="3" y="98" width="100" height="40" as="geometry" />
        </mxCell>
        <mxCell id="jomvGtJeBPQtQ8Pvg2io-27" value="Profiles" style="swimlane;whiteSpace=wrap;html=1;startSize=23;fillColor=#f5f5f5;fontColor=#333333;strokeColor=#666666;" vertex="1" parent="1">
          <mxGeometry x="-35" y="-852" width="170" height="147" as="geometry" />
        </mxCell>
        <mxCell id="jomvGtJeBPQtQ8Pvg2io-28" value="" style="sketch=0;outlineConnect=0;fillColor=#f8cecc;strokeColor=#CC0000;dashed=0;verticalLabelPosition=bottom;verticalAlign=top;align=center;html=1;fontSize=12;fontStyle=0;aspect=fixed;pointerEvents=1;shape=mxgraph.aws4.question;" vertex="1" parent="jomvGtJeBPQtQ8Pvg2io-27">
          <mxGeometry x="64.5" y="38" width="41" height="78" as="geometry" />
        </mxCell>
        <mxCell id="jomvGtJeBPQtQ8Pvg2io-29" value="Évaluation Fournisseur" style="ellipse;whiteSpace=wrap;html=1;aspect=fixed;fillColor=#f8cecc;strokeColor=#b85450;" vertex="1" parent="1">
          <mxGeometry x="-115" y="-1160" width="80" height="80" as="geometry" />
        </mxCell>
        <mxCell id="jomvGtJeBPQtQ8Pvg2io-30" value="" style="endArrow=classic;html=1;rounded=0;exitX=0.35;exitY=0.967;exitDx=0;exitDy=0;exitPerimeter=0;entryX=0.5;entryY=0;entryDx=0;entryDy=0;" edge="1" parent="1" source="jomvGtJeBPQtQ8Pvg2io-16" target="jomvGtJeBPQtQ8Pvg2io-21">
          <mxGeometry width="50" height="50" relative="1" as="geometry">
            <mxPoint x="-40" y="-880" as="sourcePoint" />
            <mxPoint x="10" y="-930" as="targetPoint" />
          </mxGeometry>
        </mxCell>
        <mxCell id="jomvGtJeBPQtQ8Pvg2io-31" value="" style="endArrow=classic;html=1;rounded=0;exitX=0.408;exitY=1.05;exitDx=0;exitDy=0;exitPerimeter=0;" edge="1" parent="1" source="jomvGtJeBPQtQ8Pvg2io-17" target="jomvGtJeBPQtQ8Pvg2io-27">
          <mxGeometry width="50" height="50" relative="1" as="geometry">
            <mxPoint x="-40" y="-880" as="sourcePoint" />
            <mxPoint x="10" y="-930" as="targetPoint" />
          </mxGeometry>
        </mxCell>
      </root>
    </mxGraphModel>
  </diagram>
</mxfile>
